<?xml version="1.0" standalone="no"?>
<!DOCTYPE svg PUBLIC "-//W3C//DTD SVG 20010904//EN"
 "http://www.w3.org/TR/2001/REC-SVG-20010904/DTD/svg10.dtd">
<svg version="1.0" xmlns="http://www.w3.org/2000/svg"
 width="1280.000000pt" height="1280.000000pt" viewBox="0 0 1280.000000 1280.000000"
 preserveAspectRatio="xMidYMid meet">

<g transform="translate(0.000000,1280.000000) scale(0.100000,-0.100000)"
fill="#000000" stroke="none">
<path d="M6175 12544 c-161 -9 -377 -24 -480 -34 -124 -11 -196 -21 -455 -65
-109 -19 -142 -26 -350 -75 -19 -4 -57 -13 -85 -19 -56 -13 -127 -33 -230 -66
-38 -12 -97 -30 -130 -40 -53 -16 -217 -73 -270 -94 -11 -5 -40 -16 -65 -26
-25 -9 -53 -21 -62 -26 -10 -5 -22 -9 -27 -9 -5 0 -45 -16 -88 -36 -43 -20
-94 -43 -113 -51 -103 -46 -349 -169 -444 -222 -60 -34 -110 -61 -112 -61 -2
0 -89 -53 -192 -117 -159 -100 -206 -131 -287 -191 -5 -4 -66 -47 -135 -96
-69 -50 -152 -113 -186 -140 -92 -77 -153 -127 -192 -158 -32 -26 -274 -250
-332 -308 -58 -58 -282 -300 -308 -332 -15 -19 -44 -55 -64 -79 -20 -24 -66
-80 -102 -124 -261 -315 -613 -886 -796 -1290 -17 -38 -40 -88 -50 -110 -40
-88 -60 -137 -120 -295 -34 -91 -66 -174 -70 -185 -8 -20 -33 -100 -43 -140
-3 -11 -17 -58 -32 -105 -29 -93 -72 -261 -99 -385 -10 -44 -21 -91 -26 -105
-5 -14 -11 -43 -15 -65 -3 -22 -13 -80 -21 -130 -25 -147 -33 -203 -49 -345
-34 -291 -38 -346 -42 -675 -5 -340 3 -525 33 -785 28 -245 35 -296 56 -405
11 -60 24 -132 29 -160 33 -200 157 -666 209 -790 5 -11 20 -54 35 -95 15 -41
35 -96 45 -121 11 -25 26 -67 35 -93 9 -26 31 -79 49 -119 18 -40 45 -97 59
-127 170 -374 429 -812 657 -1116 130 -172 298 -383 350 -438 30 -32 60 -64
65 -70 194 -222 480 -498 681 -657 49 -39 98 -78 109 -87 121 -103 509 -371
640 -442 33 -19 114 -64 180 -102 112 -65 213 -116 344 -175 31 -14 92 -42
136 -63 44 -21 105 -48 135 -60 30 -12 64 -26 75 -30 11 -5 83 -32 160 -60 77
-29 158 -59 180 -67 55 -21 193 -29 251 -14 105 27 190 121 213 237 8 44 9
212 5 637 -4 317 -10 581 -14 587 -5 8 -43 5 -131 -9 -293 -47 -574 -49 -894
-5 -181 24 -339 58 -360 76 -5 4 -16 8 -25 8 -23 0 -215 96 -274 138 -53 38
-160 125 -186 152 -84 88 -162 206 -208 315 -18 44 -40 95 -48 112 -8 18 -21
50 -30 70 -19 46 -103 213 -134 267 -12 22 -54 85 -93 140 -142 203 -245 307
-391 395 -105 65 -174 126 -230 207 -52 73 -58 110 -23 142 44 41 109 54 241
49 194 -9 272 -32 460 -139 212 -122 353 -249 480 -436 33 -48 64 -96 71 -107
173 -312 482 -557 790 -626 118 -27 461 -15 640 22 105 22 332 98 361 120 11
9 17 33 50 192 9 43 28 109 41 145 14 37 32 85 40 107 25 69 125 227 195 308
64 73 79 97 60 97 -5 0 -49 6 -98 14 -49 8 -129 20 -179 26 -86 11 -196 31
-280 50 -22 5 -74 16 -115 25 -193 42 -297 73 -457 135 -161 63 -415 189 -543
269 -245 154 -461 346 -599 531 -74 100 -181 277 -226 375 -78 169 -88 191
-95 215 -5 14 -27 77 -50 140 -22 63 -46 133 -51 155 -6 22 -14 56 -19 75 -5
19 -16 62 -25 95 -9 33 -20 85 -25 115 -5 30 -16 93 -25 140 -44 230 -67 745
-45 985 14 141 27 247 33 265 3 8 13 51 22 95 20 95 88 309 120 380 13 27 35
77 50 110 61 140 210 369 330 507 41 48 75 93 75 99 0 6 -14 53 -32 103 -17
50 -34 107 -38 126 -5 19 -18 82 -31 140 -20 93 -23 132 -23 350 0 194 3 264
17 335 10 50 23 115 29 145 6 30 16 75 23 100 7 25 18 65 25 90 19 67 88 271
93 277 3 2 36 9 75 14 101 14 260 -5 422 -50 41 -11 226 -76 255 -90 56 -25
121 -53 225 -96 123 -50 387 -184 485 -246 33 -21 105 -67 160 -103 55 -36
111 -66 125 -66 21 0 196 39 310 70 47 12 114 25 235 45 55 9 125 21 155 26
61 11 174 24 360 42 166 16 845 16 1010 0 241 -24 315 -32 373 -43 31 -5 83
-14 115 -20 181 -30 379 -73 467 -100 17 -5 51 -12 77 -15 47 -7 49 -6 215 98
92 57 197 120 233 139 194 105 282 149 340 173 36 15 85 36 110 47 25 10 54
23 65 28 11 4 41 18 68 29 68 31 269 95 362 117 57 14 117 19 210 19 139 -1
169 -9 180 -47 3 -13 10 -32 15 -43 4 -11 15 -42 25 -70 9 -27 20 -59 25 -70
19 -50 65 -231 86 -345 37 -197 42 -587 10 -740 -32 -149 -46 -199 -76 -283
-28 -77 -30 -91 -18 -105 8 -9 39 -46 70 -82 74 -88 183 -240 230 -322 21 -37
47 -84 59 -105 68 -119 160 -365 199 -531 65 -271 72 -356 67 -732 -6 -408
-37 -682 -106 -940 -11 -41 -26 -100 -34 -130 -23 -86 -90 -281 -122 -355
-139 -319 -276 -528 -479 -730 -180 -179 -372 -316 -621 -443 -124 -64 -264
-129 -325 -151 -45 -17 -68 -26 -105 -41 -68 -28 -233 -74 -375 -105 -41 -9
-93 -20 -115 -25 -111 -24 -199 -40 -280 -50 -247 -32 -285 -38 -285 -52 0 -5
29 -42 65 -81 54 -57 175 -232 175 -252 0 -2 11 -28 24 -57 27 -59 64 -164 76
-218 31 -143 42 -200 52 -286 7 -64 13 -456 17 -1099 l6 -1000 23 -42 c33 -63
74 -106 129 -133 42 -22 61 -25 153 -25 108 0 137 8 355 95 30 11 92 35 160
61 55 20 90 35 245 106 112 51 317 153 370 184 50 28 100 56 200 112 66 36
105 61 210 130 245 163 294 199 480 346 274 218 507 435 710 661 52 58 114
125 137 150 94 101 368 463 499 657 76 114 144 217 150 228 6 11 29 52 51 90
22 39 52 90 66 115 14 25 39 70 56 100 28 47 112 219 156 315 7 17 33 73 57
125 25 52 57 129 72 170 15 41 31 84 36 95 5 11 27 72 50 135 23 63 45 124 50
135 7 18 16 49 50 175 5 19 21 76 35 125 49 173 54 190 64 245 6 30 22 114 36
185 13 72 29 150 34 175 6 25 17 106 26 180 8 74 20 171 25 215 18 139 40 534
40 700 0 163 -11 352 -30 550 -6 61 -15 153 -20 205 -4 52 -13 118 -18 145 -6
28 -15 84 -22 125 -17 111 -40 240 -51 280 -4 19 -15 67 -24 105 -36 162 -50
217 -70 280 -7 22 -25 81 -40 130 -15 50 -31 106 -37 125 -12 40 -103 289
-122 335 -7 17 -19 46 -26 65 -14 41 -27 70 -68 160 -16 36 -39 88 -52 115
-31 69 -101 210 -146 292 -46 85 -94 172 -108 198 -6 10 -63 103 -127 205
-135 216 -315 470 -443 625 -50 61 -102 123 -115 140 -34 44 -233 258 -325
350 -246 244 -494 455 -756 643 -176 127 -490 328 -630 404 -47 26 -119 65
-160 88 -77 42 -197 101 -285 140 -27 12 -84 38 -125 57 -41 19 -129 55 -195
79 -123 46 -185 70 -220 85 -19 8 -106 35 -270 85 -44 13 -93 28 -110 33 -48
15 -142 38 -265 66 -63 14 -133 30 -155 35 -22 5 -83 17 -135 25 -52 9 -120
20 -150 25 -155 26 -194 31 -300 41 -299 26 -751 42 -925 33z"/>
</g>
</svg>
