<?xml version="1.0" standalone="no"?>
<!DOCTYPE svg PUBLIC "-//W3C//DTD SVG 20010904//EN"
 "http://www.w3.org/TR/2001/REC-SVG-20010904/DTD/svg10.dtd">
<svg version="1.0" xmlns="http://www.w3.org/2000/svg"
 width="1280.000000pt" height="1280.000000pt" viewBox="0 0 1280.000000 1280.000000"
 preserveAspectRatio="xMidYMid meet">

<g transform="translate(0.000000,1280.000000) scale(0.100000,-0.100000)"
fill="#000000" stroke="none">
<path d="M190 12017 c0 -11 48 -76 266 -362 126 -165 337 -441 434 -568 109
-143 333 -436 398 -521 20 -27 57 -75 82 -106 25 -32 97 -126 160 -210 63 -83
135 -178 160 -209 53 -68 69 -90 280 -366 88 -115 166 -217 174 -226 17 -21
96 -125 121 -160 11 -15 61 -80 110 -144 91 -117 132 -172 215 -281 24 -32
105 -138 180 -235 74 -97 146 -191 160 -209 14 -19 65 -86 114 -149 49 -64
115 -149 145 -190 31 -40 74 -97 96 -126 22 -28 60 -78 84 -110 24 -32 50 -66
57 -74 7 -9 33 -43 58 -76 25 -33 49 -64 54 -70 4 -5 51 -66 103 -134 118
-156 250 -328 382 -499 56 -74 111 -146 122 -161 11 -15 32 -43 47 -62 22 -28
172 -224 313 -409 88 -116 295 -386 303 -395 39 -49 62 -84 62 -96 0 -8 -10
-26 -22 -39 -13 -14 -48 -55 -78 -90 -30 -36 -57 -67 -60 -70 -3 -3 -53 -59
-110 -125 -57 -66 -107 -122 -110 -125 -3 -3 -30 -34 -60 -70 -30 -36 -57 -67
-60 -70 -11 -11 -168 -189 -220 -250 -30 -36 -73 -85 -96 -110 -22 -25 -54
-61 -71 -80 -16 -19 -66 -76 -109 -125 -43 -50 -108 -124 -144 -165 -35 -41
-67 -77 -70 -80 -3 -3 -37 -41 -75 -85 -74 -87 -276 -317 -285 -325 -3 -3 -32
-36 -65 -75 -33 -38 -62 -72 -65 -75 -3 -3 -51 -57 -105 -120 -55 -63 -107
-122 -115 -131 -8 -8 -67 -76 -130 -149 -63 -74 -138 -159 -165 -190 -28 -30
-80 -89 -115 -130 -61 -71 -112 -129 -135 -154 -6 -6 -102 -117 -215 -246
-112 -129 -207 -237 -210 -240 -3 -3 -37 -41 -74 -85 -38 -44 -87 -100 -110
-125 -23 -25 -66 -74 -96 -110 -30 -36 -57 -67 -60 -70 -3 -3 -53 -59 -110
-125 -58 -66 -117 -133 -131 -150 -53 -60 -202 -231 -228 -260 -14 -16 -91
-104 -171 -195 -80 -91 -161 -183 -180 -206 -19 -22 -115 -132 -213 -243 -98
-111 -175 -206 -172 -211 4 -6 363 -10 950 -10 l943 0 203 233 c112 127 206
234 209 237 3 3 37 41 75 85 38 44 162 186 275 314 113 129 236 271 274 315
39 45 72 83 76 86 3 3 32 36 65 75 33 38 76 88 96 110 46 51 262 297 399 455
36 41 101 115 144 165 43 49 91 104 105 120 127 146 236 271 241 275 3 3 36
41 75 85 38 44 72 82 75 85 3 3 30 34 60 70 30 36 57 67 60 70 3 3 53 59 110
125 57 66 107 122 110 125 3 3 37 41 75 85 110 128 409 470 415 475 4 3 52 59
109 125 124 144 190 215 199 215 4 -1 28 -29 54 -63 92 -120 269 -352 292
-382 22 -28 288 -375 417 -545 32 -41 106 -138 164 -215 59 -77 133 -173 164
-214 31 -40 67 -88 81 -106 14 -17 52 -68 85 -111 70 -93 230 -302 248 -324 7
-9 33 -42 57 -75 25 -33 50 -66 57 -75 7 -8 85 -109 173 -225 88 -115 183
-239 210 -275 28 -36 100 -130 161 -210 170 -224 212 -279 244 -320 17 -21 47
-60 67 -86 21 -27 94 -123 163 -214 69 -91 131 -172 138 -180 7 -8 26 -33 42
-55 16 -22 67 -88 113 -148 l83 -107 1911 2 c1409 2 1912 6 1915 14 3 9 -113
174 -137 194 -3 3 -30 39 -60 80 -30 41 -57 77 -60 80 -3 3 -80 104 -170 224
-162 216 -314 417 -598 791 -360 476 -501 662 -547 725 -27 37 -104 138 -170
225 -66 87 -143 187 -170 224 -93 122 -458 605 -579 766 -66 88 -123 162 -126
165 -3 3 -86 113 -185 245 -99 132 -182 242 -185 245 -3 3 -73 95 -156 205
-83 110 -207 274 -275 364 -68 90 -148 196 -177 235 -28 39 -58 78 -65 87 -8
8 -32 40 -54 70 -23 30 -143 189 -268 354 -229 303 -347 459 -582 770 -71 94
-172 228 -226 298 -53 71 -97 132 -97 135 0 4 15 23 33 43 17 20 57 64 87 99
30 35 93 107 139 159 46 53 96 110 110 126 38 44 164 188 176 201 6 6 35 39
65 74 30 35 93 107 139 159 46 53 96 110 110 126 14 17 73 84 131 150 58 66
117 134 131 150 15 17 64 73 109 125 45 52 97 111 114 130 62 70 243 275 315
359 41 47 100 115 131 151 50 56 176 200 259 295 117 134 241 276 266 305 16
19 48 55 71 80 22 25 72 81 110 126 59 68 112 129 305 349 15 17 79 91 144
165 65 74 132 151 149 170 17 19 63 71 101 115 39 44 72 82 75 85 3 3 50 57
105 120 54 63 117 135 139 160 50 56 81 91 171 195 38 44 97 112 131 150 34
39 111 126 170 195 60 69 121 139 136 155 16 17 28 36 28 43 0 9 -195 12 -944
12 -886 0 -946 -1 -962 -17 -10 -10 -79 -88 -153 -173 -75 -85 -148 -168 -162
-185 -15 -16 -66 -75 -114 -130 -48 -55 -100 -113 -114 -130 -15 -16 -58 -66
-96 -110 -38 -44 -96 -111 -130 -150 -135 -152 -241 -273 -265 -301 -14 -16
-72 -83 -130 -148 -58 -66 -138 -158 -179 -205 -41 -47 -100 -115 -131 -151
-109 -124 -238 -270 -390 -445 -57 -66 -107 -122 -110 -125 -3 -3 -20 -23 -39
-45 -18 -22 -52 -60 -75 -85 -23 -25 -69 -77 -101 -116 -53 -62 -252 -290
-280 -320 -5 -6 -35 -39 -65 -74 -96 -110 -360 -412 -426 -486 -35 -40 -84
-97 -110 -127 -25 -30 -51 -58 -59 -61 -10 -3 -56 50 -144 167 -71 95 -204
271 -296 392 -92 121 -245 324 -340 450 -96 127 -249 329 -340 450 -92 121
-225 297 -295 390 -71 94 -177 233 -235 310 -145 190 -312 413 -434 575 -56
74 -107 142 -114 150 -7 9 -33 42 -57 75 -25 33 -47 62 -50 65 -4 3 -35 44
-71 93 -71 97 -105 142 -143 190 -14 18 -66 87 -116 155 l-92 122 -1964 0
c-1583 0 -1964 -2 -1964 -13z m3390 -1124 c24 -32 106 -141 184 -243 77 -102
169 -223 203 -270 35 -47 69 -92 76 -100 7 -8 66 -87 132 -174 66 -87 165
-218 220 -291 327 -430 432 -569 445 -589 23 -32 104 -140 111 -146 3 -3 25
-32 49 -65 24 -33 48 -64 53 -70 4 -5 34 -44 65 -86 31 -42 111 -147 177 -234
66 -87 146 -192 177 -234 31 -42 61 -80 65 -86 5 -5 99 -129 208 -275 110
-146 206 -272 212 -280 13 -15 211 -277 518 -685 272 -360 504 -667 529 -700
13 -16 81 -106 152 -200 70 -93 184 -244 253 -335 69 -91 154 -203 189 -250
34 -47 68 -92 75 -100 7 -8 59 -78 117 -155 58 -77 113 -149 122 -160 9 -11
61 -79 115 -151 54 -72 172 -228 263 -348 91 -120 174 -230 185 -246 25 -36
197 -263 205 -270 3 -3 52 -68 110 -145 58 -77 110 -147 117 -155 16 -20 303
-400 506 -670 89 -118 168 -222 174 -230 12 -14 69 -90 522 -688 236 -313 251
-334 251 -344 0 -4 -235 -8 -523 -8 l-523 0 -114 151 c-63 82 -162 212 -220
287 -176 228 -249 323 -320 417 -94 123 -234 308 -298 391 -158 206 -429 560
-592 774 -102 133 -206 270 -232 304 -26 33 -120 156 -208 271 -88 116 -166
217 -174 226 -16 20 -97 125 -116 153 -8 11 -70 93 -138 181 -67 88 -139 182
-160 209 -20 27 -58 76 -84 110 -26 33 -97 126 -158 206 -61 80 -116 152 -123
160 -7 9 -33 42 -57 75 -25 33 -47 62 -50 65 -3 3 -46 59 -96 125 -50 66 -117
154 -148 195 -32 41 -76 100 -99 130 -22 30 -43 57 -46 60 -3 3 -28 36 -56 73
-27 38 -62 83 -76 100 -14 18 -59 75 -98 127 -40 52 -98 128 -130 169 -82 108
-96 126 -211 278 -58 76 -124 163 -148 193 -60 76 -57 72 -154 200 -48 63
-152 199 -230 301 -79 103 -192 251 -253 330 -60 79 -157 206 -215 282 -58 76
-147 193 -199 260 -103 136 -169 221 -287 377 -43 58 -81 107 -84 110 -6 5
-59 75 -265 345 -55 72 -127 165 -160 208 -33 44 -78 103 -100 131 -22 29 -66
86 -97 127 -83 108 -218 286 -342 450 -99 130 -137 180 -211 274 -118 152
-153 200 -149 207 3 4 256 8 563 8 l558 0 43 -57z"/>
</g>
</svg>
