<?xml version="1.0" standalone="no"?>
<!DOCTYPE svg PUBLIC "-//W3C//DTD SVG 20010904//EN"
 "http://www.w3.org/TR/2001/REC-SVG-20010904/DTD/svg10.dtd">
<svg version="1.0" xmlns="http://www.w3.org/2000/svg"
 width="1280.000000pt" height="1280.000000pt" viewBox="0 0 1280.000000 1280.000000"
 preserveAspectRatio="xMidYMid meet">

<g transform="translate(0.000000,1280.000000) scale(0.100000,-0.100000)"
fill="#000000" stroke="none">
<path d="M5140 10819 c-1439 -31 -2316 -73 -2980 -140 -52 -6 -133 -14 -180
-19 -47 -4 -116 -13 -155 -19 -38 -6 -101 -16 -140 -22 -401 -61 -699 -211
-966 -486 -241 -247 -369 -511 -449 -928 -7 -33 -16 -80 -21 -105 -21 -105
-73 -488 -90 -665 -37 -397 -51 -610 -69 -1030 -5 -137 -15 -297 -20 -355 -13
-136 -13 -1184 0 -1320 5 -58 15 -217 20 -355 18 -435 31 -622 70 -1035 15
-161 51 -436 74 -570 8 -47 18 -103 21 -125 3 -22 10 -58 15 -80 5 -22 17 -71
25 -110 103 -461 338 -803 720 -1047 128 -81 340 -171 468 -198 23 -4 78 -16
122 -25 44 -9 109 -21 145 -25 36 -5 117 -16 180 -25 63 -9 156 -21 205 -25
223 -23 441 -42 570 -50 668 -43 802 -49 1415 -69 179 -6 489 -16 690 -23 491
-16 2707 -16 3220 1 1173 37 1427 47 1745 66 417 26 520 33 695 49 347 33 347
33 650 76 36 6 97 17 135 26 39 9 86 19 105 24 43 9 154 46 195 65 193 87 286
144 425 261 165 139 282 288 392 500 45 88 114 285 136 389 83 390 128 724
172 1280 41 514 54 929 55 1720 0 882 -19 1353 -76 1930 -52 528 -115 898
-200 1160 -143 447 -468 797 -914 985 -101 43 -315 96 -475 119 -41 6 -120 17
-175 25 -287 42 -898 91 -1440 117 -1254 59 -3108 84 -4315 58z m95 -2569 c36
-22 68 -40 71 -40 3 0 18 -8 32 -19 15 -10 54 -33 87 -51 125 -69 151 -84 202
-117 29 -18 54 -33 57 -33 2 0 50 -27 106 -60 56 -33 103 -60 106 -60 2 0 33
-18 69 -40 36 -22 68 -40 71 -40 3 0 30 -16 60 -35 30 -19 56 -35 58 -35 2 0
48 -26 103 -58 54 -32 125 -74 158 -92 134 -74 152 -85 202 -117 29 -18 54
-33 57 -33 2 0 50 -27 106 -60 56 -33 103 -60 105 -60 2 0 60 -34 130 -75 69
-41 128 -75 131 -75 2 0 34 -19 71 -42 70 -42 85 -51 188 -108 33 -18 104 -60
158 -92 55 -32 101 -58 103 -58 3 0 30 -16 60 -35 30 -19 56 -35 59 -35 3 0
34 -18 70 -40 36 -22 67 -40 69 -40 4 0 194 -109 226 -130 8 -5 29 -16 45 -25
96 -50 240 -143 240 -155 0 -11 -262 -176 -315 -197 -8 -4 -33 -18 -55 -31
-48 -30 -207 -122 -211 -122 -1 0 -49 -27 -106 -61 -57 -34 -121 -71 -143 -84
-22 -12 -85 -48 -140 -80 -55 -32 -120 -69 -145 -83 -25 -14 -49 -28 -55 -32
-10 -8 -28 -18 -140 -80 -33 -18 -71 -41 -85 -50 -14 -9 -45 -28 -70 -42 -128
-71 -173 -96 -263 -150 -55 -32 -101 -58 -103 -58 -2 0 -28 -16 -58 -35 -30
-19 -57 -35 -60 -35 -3 0 -35 -18 -71 -40 -36 -22 -68 -40 -70 -40 -3 0 -24
-12 -46 -26 -23 -14 -62 -37 -87 -51 -99 -55 -112 -63 -149 -86 -37 -23 -60
-36 -188 -107 -33 -18 -71 -40 -85 -50 -14 -9 -32 -20 -40 -23 -8 -4 -22 -11
-30 -17 -20 -13 -150 -88 -225 -130 -33 -18 -73 -42 -90 -52 -16 -10 -37 -21
-45 -25 -8 -3 -39 -21 -68 -40 -29 -18 -55 -33 -57 -33 -3 0 -23 -11 -44 -24
-29 -18 -41 -22 -50 -13 -8 8 -11 508 -11 1897 0 1038 3 1890 7 1893 13 13 34
6 98 -33z"/>
</g>
</svg>
